<svg xmlns="http://www.w3.org/2000/svg" width="640" height="400" viewBox="0 0 640 400">
  <defs>
    <linearGradient id="bg" x1="0%" y1="0%" x2="100%" y2="100%">
      <stop offset="0%" stop-color="#141210"/>
      <stop offset="100%" stop-color="#0a0908"/>
    </linearGradient>
    <linearGradient id="fb-blue" x1="0%" y1="0%" x2="100%" y2="0%">
      <stop offset="0%" stop-color="#1877f2"/>
      <stop offset="100%" stop-color="#0d65d9"/>
    </linearGradient>
  </defs>
  <rect width="640" height="400" fill="url(#bg)"/>
  <rect x="180" y="50" width="280" height="300" rx="24" fill="#1c1916" stroke="rgba(24,119,242,0.35)" stroke-width="2"/>
  <rect x="180" y="50" width="280" height="56" rx="24" fill="url(#fb-blue)"/>
  <rect x="180" y="82" width="280" height="24" fill="url(#fb-blue)"/>
  <text x="320" y="84" text-anchor="middle" fill="#ffffff" font-family="sans-serif" font-size="18" font-weight="bold">f</text>
  <circle cx="320" cy="160" r="36" fill="rgba(24,119,242,0.2)" stroke="rgba(24,119,242,0.5)" stroke-width="2"/>
  <text x="320" y="168" text-anchor="middle" fill="#faf6ef" font-family="serif" font-size="22" font-style="italic">5Þ5°5■5¹5¦5Û5÷5¯</text>
  <text x="320" y="210" text-anchor="middle" fill="#1877f2" font-family="monospace" font-size="14" letter-spacing="1">FB FANCY FONTS</text>
  <rect x="210" y="240" width="220" height="40" rx="8" fill="rgba(24,119,242,0.15)" stroke="rgba(24,119,242,0.4)" stroke-width="1"/>
  <text x="320" y="266" text-anchor="middle" fill="#1877f2" font-family="monospace" font-size="11" letter-spacing="1">COPY PASTE READY</text>
  <rect x="210" y="295" width="100" height="28" rx="6" fill="rgba(0,232,255,0.12)" stroke="rgba(0,232,255,0.35)" stroke-width="1"/>
  <text x="260" y="314" text-anchor="middle" fill="#00e8ff" font-family="monospace" font-size="9"> WORKS</text>
  <rect x="330" y="295" width="100" height="28" rx="6" fill="rgba(255,45,149,0.12)" stroke="rgba(255,45,149,0.35)" stroke-width="1"/>
  <text x="380" y="314" text-anchor="middle" fill="#ff2d95" font-family="monospace" font-size="9">á MAY VARY</text>
  <rect x="0" y="396" width="640" height="4" fill="url(#fb-blue)" opacity="0.8"/>
  <text x="320" y="390" text-anchor="middle" fill="#a89f94" font-family="monospace" font-size="10" letter-spacing="2">FACEBOOK STYLISH NAME GENERATOR</text>
</svg>
