<svg xmlns="http://www.w3.org/2000/svg" width="640" height="400" viewBox="0 0 640 400">
  <defs>
    <linearGradient id="bg" x1="0%" y1="0%" x2="100%" y2="100%">
      <stop offset="0%" stop-color="#141210"/>
      <stop offset="100%" stop-color="#0a0908"/>
    </linearGradient>
    <linearGradient id="accent" x1="0%" y1="0%" x2="100%" y2="0%">
      <stop offset="0%" stop-color="#ff6b00"/>
      <stop offset="50%" stop-color="#ff2d95"/>
      <stop offset="100%" stop-color="#00e8ff"/>
    </linearGradient>
  </defs>
  <rect width="640" height="400" fill="url(#bg)"/>
  <rect x="200" y="40" width="240" height="320" rx="28" fill="#1c1916" stroke="rgba(250,246,239,0.12)" stroke-width="3"/>
  <rect x="290" y="52" width="60" height="8" rx="4" fill="rgba(250,246,239,0.1)"/>
  <rect x="220" y="80" width="200" height="240" rx="16" fill="#252220"/>
  <text x="320" y="115" text-anchor="middle" fill="#6b635a" font-family="monospace" font-size="11" letter-spacing="2">LOBBY NAME</text>
  <text x="320" y="165" text-anchor="middle" fill="#faf6ef" font-family="serif" font-size="20">Flame Pro Style</text>
  <rect x="240" y="190" width="160" height="36" rx="8" fill="rgba(255,107,0,0.15)" stroke="rgba(255,107,0,0.4)" stroke-width="1"/>
  <text x="320" y="213" text-anchor="middle" fill="#ff8c00" font-family="monospace" font-size="12">EDIT NAME</text>
  <rect x="40" y="120" width="140" height="56" rx="10" fill="#1c1916" stroke="rgba(255,107,0,0.35)" stroke-width="1"/>
  <text x="110" y="152" text-anchor="middle" fill="#ff8c00" font-size="16">FF MAX</text>
  <rect x="460" y="120" width="140" height="56" rx="10" fill="#1c1916" stroke="rgba(255,45,149,0.3)" stroke-width="1"/>
  <text x="530" y="152" text-anchor="middle" fill="#ff2d95" font-size="16">Unicode</text>
  <rect x="40" y="220" width="140" height="56" rx="10" fill="#1c1916" stroke="rgba(0,232,255,0.3)" stroke-width="1"/>
  <text x="110" y="252" text-anchor="middle" fill="#00e8ff" font-size="16">20 chars</text>
  <rect x="460" y="220" width="140" height="56" rx="10" fill="#1c1916" stroke="rgba(255,107,0,0.3)" stroke-width="1"/>
  <text x="530" y="252" text-anchor="middle" fill="#faf6ef" font-size="16">Copy Paste</text>
  <rect x="0" y="380" width="640" height="4" fill="url(#accent)" opacity="0.7"/>
  <text x="320" y="375" text-anchor="middle" fill="#a89f94" font-family="monospace" font-size="10" letter-spacing="3">FREE FIRE NAME GENERATOR</text>
</svg>
