<svg xmlns="http://www.w3.org/2000/svg" width="640" height="400" viewBox="0 0 640 400">
  <defs>
    <linearGradient id="bg" x1="0%" y1="0%" x2="100%" y2="100%">
      <stop offset="0%" stop-color="#141210"/>
      <stop offset="100%" stop-color="#0a0908"/>
    </linearGradient>
    <linearGradient id="accent" x1="0%" y1="0%" x2="100%" y2="0%">
      <stop offset="0%" stop-color="#ff2d95"/>
      <stop offset="50%" stop-color="#c8ff00"/>
      <stop offset="100%" stop-color="#00e8ff"/>
    </linearGradient>
  </defs>
  <rect width="640" height="400" fill="url(#bg)"/>
  <rect x="120" y="60" width="400" height="280" rx="20" fill="#1c1916" stroke="rgba(250,246,239,0.12)" stroke-width="2"/>
  <text x="320" y="120" text-anchor="middle" fill="#6b635a" font-family="monospace" font-size="11" letter-spacing="2">FREESTYLE NICKNAME</text>
  <text x="320" y="175" text-anchor="middle" fill="#faf6ef" font-family="serif" font-size="28" font-style="italic">5Ô5²55§5‗5³5±</text>
  <text x="320" y="215" text-anchor="middle" fill="#ff2d95" font-family="monospace" font-size="22">5Z5T5\5_5R5^5V</text>
  <rect x="180" y="240" width="280" height="44" rx="10" fill="rgba(200,255,0,0.12)" stroke="rgba(200,255,0,0.4)" stroke-width="1"/>
  <text x="320" y="268" text-anchor="middle" fill="#c8ff00" font-family="monospace" font-size="13" letter-spacing="1">COPY PASTE ANYWHERE</text>
  <rect x="40" y="140" width="60" height="60" rx="12" fill="#1c1916" stroke="rgba(255,45,149,0.35)" stroke-width="1"/>
  <text x="70" y="178" text-anchor="middle" fill="#ff2d95" font-size="22"><¡</text>
  <rect x="540" y="140" width="60" height="60" rx="12" fill="#1c1916" stroke="rgba(0,232,255,0.35)" stroke-width="1"/>
  <text x="570" y="178" text-anchor="middle" fill="#00e8ff" font-size="22">(</text>
  <rect x="40" y="240" width="60" height="60" rx="12" fill="#1c1916" stroke="rgba(200,255,0,0.35)" stroke-width="1"/>
  <text x="70" y="278" text-anchor="middle" fill="#c8ff00" font-size="22">=%</text>
  <rect x="540" y="240" width="60" height="60" rx="12" fill="#1c1916" stroke="rgba(255,45,149,0.25)" stroke-width="1"/>
  <text x="570" y="278" text-anchor="middle" fill="#faf6ef" font-size="22"><8</text>
  <rect x="0" y="380" width="640" height="4" fill="url(#accent)" opacity="0.7"/>
  <text x="320" y="375" text-anchor="middle" fill="#a89f94" font-family="monospace" font-size="10" letter-spacing="3">FREESTYLE NICKNAME GENERATOR</text>
</svg>
